<?xml version="1.0" encoding="utf-8"?>
<!-- Generator: Adobe Illustrator 19.0.0, SVG Export Plug-In . SVG Version: 6.00 Build 0)  -->
<svg version="1.1" id="Calque_1" xmlns="http://www.w3.org/2000/svg" xmlns:xlink="http://www.w3.org/1999/xlink" x="0px" y="0px"
	 viewBox="0 0 467.7 467.7" style="enable-background:new 0 0 467.7 467.7;" xml:space="preserve">
<style type="text/css">
	.st0{fill:#FFBA39;}
</style>
<g id="XMLID_17_">
	<path id="XMLID_20_" class="st0" d="M309.2,7.8l-31.1,93.4h-58.4c-0.7,0-1.4,0.5-1.6,1.2l-47.6,142.8c-0.1,0.2-0.3,0.8,0.2,1.6
		c0.5,0.7,1.2,0.7,1.4,0.7h57.3l-31.1,93.4h-96c-17,0-32.4-7.9-42.3-21.7s-12.5-30.9-7.2-47L77.2,199l-41.1-24.6l61.6-36.8l31.3-94
		c7.1-21.3,27-35.7,49.5-35.7h130.7 M316.2,2.8h-6.9H178.5c-24.7,0-46.5,15.7-54.3,39.1l-30.7,92.2l-60,35.9l-7.2,4.3l7.2,4.3
		l37.7,22.5l-23.1,69.4c-5.9,17.7-3,36.4,7.9,51.5c10.9,15.1,27.8,23.7,46.4,23.7h96h3.6l1.1-3.4l31.1-93.4l2.2-6.6h-6.9h-52.7
		l45.4-136.2h56h3.6l1.1-3.4L314,9.3L316.2,2.8L316.2,2.8z"/>
</g>
<path id="XMLID_19_" class="st0" d="M200,96.4c2.8-8.5,10.7-14.2,19.7-14.2h44.7l18.5-55.4H178.5c-14.3,0-27,9.1-31.5,22.7
	l-33.6,100.7L73,174.3l27,16.1l-29.2,87.7c-7.2,21.5,8.8,43.7,31.5,43.7h82.3l18.5-55.4h-30.9c-14.1,0-24.1-13.9-19.7-27.3L200,96.4
	z"/>
<g id="XMLID_16_">
	<path id="XMLID_13_" class="st0" d="M365.2,127.6c17,0,32.4,7.9,42.3,21.7c9.9,13.8,12.5,30.9,7.2,47l-24.4,73.2l41.1,24.6
		l-61.6,36.8l-31.3,94c-7.1,21.3-27,35.7-49.5,35.7H158.2l31.1-93.4h58.4c0.7,0,1.4-0.5,1.6-1.2l47.6-142.8c0.1-0.2,0.3-0.8-0.2-1.6
		c-0.5-0.7-1.2-0.7-1.4-0.7H238l31.1-93.4h96.1 M365.2,122.6h-96h-3.6l-1.1,3.4l-31.1,93.4l-2.2,6.6h6.9h52.7l-45.4,136.2h-56h-3.6
		l-1.1,3.4L153.6,459l-2.2,6.6h6.9H289c24.7,0,46.5-15.7,54.3-39.1l30.7-92.2l60-35.9l7.2-4.3l-7.2-4.3l-37.7-22.5l23.1-69.4
		c5.9-17.7,3-36.4-7.9-51.5C400.8,131.3,383.9,122.6,365.2,122.6L365.2,122.6z"/>
</g>
<path id="XMLID_22_" class="st0" d="M365.2,146.6H283L264.5,202h30.9c14.1,0,24.1,13.9,19.7,27.3L267.5,372
	c-2.8,8.5-10.7,14.2-19.7,14.2h-44.7l-18.5,55.4H289c14.3,0,27-9.1,31.5-22.7l33.6-100.7l40.4-24.1l-27-16.1l29.2-87.7
	C403.9,168.8,387.9,146.6,365.2,146.6z"/>
</svg>
